<?xml version="1.0" standalone="no"?>
<!DOCTYPE svg PUBLIC "-//W3C//DTD SVG 20010904//EN"
 "http://www.w3.org/TR/2001/REC-SVG-20010904/DTD/svg10.dtd">
<svg version="1.0" xmlns="http://www.w3.org/2000/svg"
 width="512.000000pt" height="512.000000pt" viewBox="0 0 512.000000 512.000000"
 preserveAspectRatio="xMidYMid meet">
<metadata>
Created by potrace 1.16, written by Peter Selinger 2001-2019
</metadata>
<g transform="translate(0.000000,512.000000) scale(0.100000,-0.100000)"
fill="#000000" stroke="none">
<path d="M2822 5105 c-624 -113 -1067 -666 -1039 -1295 14 -302 114 -554 313
-785 58 -68 78 -101 68 -116 -21 -34 -298 -89 -490 -96 -197 -8 -265 3 -515
81 -229 71 -295 89 -423 111 -345 59 -565 -61 -642 -350 -25 -95 -25 -345 0
-500 58 -357 223 -883 363 -1158 69 -135 157 -271 236 -362 311 -362 722 -541
1412 -617 159 -17 1009 -17 1225 0 340 27 554 81 795 197 415 202 682 530 789
970 49 204 54 497 11 712 -44 218 -154 472 -283 653 -80 113 -236 272 -347
355 -89 66 -135 105 -135 115 0 4 53 35 118 70 263 141 420 248 547 376 178
177 250 358 215 536 -23 118 -80 191 -179 230 -46 18 -77 22 -176 22 -66 0
-163 -3 -215 -8 -77 -7 -102 -6 -131 7 -61 25 -117 85 -166 176 -142 263 -327
445 -578 566 -126 61 -207 88 -332 110 -107 18 -339 19 -441 0z m458 -706
c235 -106 185 -445 -71 -484 -143 -21 -283 105 -282 253 1 69 19 115 64 167
70 80 194 107 289 64z m-675 -2270 c478 -47 766 -217 824 -487 33 -155 -2
-257 -136 -395 -146 -150 -404 -273 -678 -323 -146 -27 -442 -25 -580 3 -384
80 -786 355 -1012 695 -101 153 -162 324 -135 383 22 48 144 86 357 111 260
30 1109 38 1360 13z"/>
</g>
</svg>
